HIERARCHY
ROOT hip
{
	OFFSET 0.000000 0.000000 0.000000 
	CHANNELS 6 Xposition Yposition Zposition Xrotation Zrotation Yrotation
	JOINT abdomen
	{
		OFFSET 0.000000 3.402643 0.000000 
		CHANNELS 3 Xrotation Zrotation Yrotation
		JOINT chest
		{
			OFFSET 0.000000 8.438565 -0.680529 
			CHANNELS 3 Xrotation Zrotation Yrotation
			JOINT neck
			{
				OFFSET 0.000000 10.207942 -0.272212 
				CHANNELS 3 Xrotation Zrotation Yrotation
				JOINT head
				{
					OFFSET 0.000000 3.130431 0.000000 
					CHANNELS 3 Xrotation Zrotation Yrotation
					End Site
					{
						OFFSET 0.000000 3.130435 0.000000 
					}
				}
			}
			JOINT lCollar
			{
				OFFSET 3.470700 6.669187 -0.816635 
				CHANNELS 3 Yrotation Zrotation Xrotation
				JOINT lShldr
				{
					OFFSET 3.198488 0.000000 0.000000 
					CHANNELS 3 Zrotation Yrotation Xrotation
					JOINT lForeArm
					{
						OFFSET 10.139888 0.000000 0.000000 
						CHANNELS 3 Yrotation Zrotation Xrotation
						JOINT lHand
						{
							OFFSET 8.370511 0.000000 0.000000 
							CHANNELS 3 Zrotation Yrotation Xrotation
							End Site
							{
								OFFSET 4.083176 0.000000 0.000000 
							}
						}
					}
				}
			}
			JOINT rCollar
			{
				OFFSET -3.470700 6.669187 -0.816635 
				CHANNELS 3 Yrotation Zrotation Xrotation
				JOINT rShldr
				{
					OFFSET -3.198488 0.000000 0.000000 
					CHANNELS 3 Zrotation Yrotation Xrotation
					JOINT rForeArm
					{
						OFFSET -10.139888 0.000000 0.000000 
						CHANNELS 3 Yrotation Zrotation Xrotation
						JOINT rHand
						{
							OFFSET -8.370511 0.000000 0.000000 
							CHANNELS 3 Zrotation Yrotation Xrotation
							End Site
							{
								OFFSET -4.083176 0.000000 0.000000 
							}
						}
					}
				}
			}
		}
	}
	JOINT lThigh
	{
		OFFSET 5.308129 -1.633274 1.361059 
		CHANNELS 3 Xrotation Zrotation Yrotation
		JOINT lShin
		{
			OFFSET -2.041588 -20.007561 0.000000 
			CHANNELS 3 Xrotation Zrotation Yrotation
			JOINT lFoot
			{
				OFFSET 0.000000 -19.190928 -1.224953 
				CHANNELS 3 Xrotation Yrotation Zrotation
				End Site
				{
					OFFSET 0.000000 -2.449906 4.627600 
				}
			}
		}
	}
	JOINT rThigh
	{
		OFFSET -5.308129 -1.633274 1.361059 
		CHANNELS 3 Xrotation Zrotation Yrotation
		JOINT rShin
		{
			OFFSET 2.041588 -20.007561 0.000000 
			CHANNELS 3 Xrotation Zrotation Yrotation
			JOINT rFoot
			{
				OFFSET 0.000000 -19.190928 -1.224953 
				CHANNELS 3 Xrotation Yrotation Zrotation
				End Site
				{
					OFFSET 0.000000 -2.449906 4.627600 
				}
			}
		}
	}
}
MOTION
Frames: 8
Frame Time: 0.033333
-7.020834 48.055317 12.944157 -24.287107 38.349609 -126.185341 47.228043 -23.006939 -8.403651 21.630861 -2.910156 -1.719246 51.063168 8.107644 2.471410 -132.314453 18.935545 -6.520268 2.000000 -2.000000 0.000000 25.332029 -55.527340 -50.683590 -105.392670 0.307361 -3.173048 14.426347 51.514477 -22.684814 -2.000000 2.000000 0.000000 -56.621094 14.150391 -157.272186 77.224586 -0.103065 -2.310556 79.962257 -62.003994 -81.809052 -76.397469 14.488839 8.316857 40.078152 -4.074044 -3.446161 -2.933387 -5.421837 1.558602 -19.473177 -19.851849 -54.575439 7.171979 5.137169 0.618651 5.905736 -9.049777 13.945475 
-6.724330 48.236519 12.937329 -24.101563 37.177738 -126.908150 47.278339 -23.124231 -8.539328 21.640625 -3.017578 -1.679688 51.063168 8.107644 2.471410 -132.187485 19.042967 -6.461659 2.000000 -2.000000 0.000000 25.693357 -55.380856 -51.181641 -105.392670 0.307361 -3.173048 13.695445 51.464794 -23.109722 -2.000000 2.000000 0.000000 -56.464844 13.964845 -155.485916 76.872757 -0.093883 -2.300243 78.825157 -60.962055 -81.262802 -74.944145 15.241350 8.267610 39.020851 -4.142814 -3.401398 -2.521325 -5.161496 0.817374 -19.670080 -20.030979 -53.614540 8.035861 4.948785 0.660652 6.250373 -8.888572 13.463223 
-6.400033 48.338932 13.013241 -23.476563 35.244141 -127.924049 47.228043 -23.006939 -8.403651 21.640625 -3.125000 -1.455078 51.063168 8.107644 2.471410 -131.689453 18.759766 -5.690220 2.000000 -2.000000 0.000000 25.683592 -55.615234 -52.343750 -105.392387 0.307924 -3.163303 12.170994 51.903618 -23.984772 -2.000000 2.000000 0.000000 -56.601563 13.740235 -152.529297 76.696976 -0.084134 -2.299676 78.155380 -59.515831 -81.404610 -72.330765 16.395067 9.076494 37.630486 -4.103384 -3.246039 -1.928403 -5.117347 0.397850 -19.132536 -20.540258 -52.299969 8.936901 5.087441 0.937782 6.211292 -8.491453 12.702312 
-6.063363 48.488613 13.164018 -22.792969 32.802734 -129.320877 46.936600 -22.798323 -8.090114 21.464846 -3.125000 -1.104048 51.063168 8.107644 2.471410 -130.771484 18.154297 -4.150392 2.000000 -2.000000 0.000000 24.628908 -55.791019 -53.543232 -105.392387 0.307924 -3.163303 8.391789 52.225681 -26.632504 -2.000000 2.000000 0.000000 -56.240231 13.789063 -148.513290 76.692024 -0.083677 -2.475647 77.058731 -57.848778 -80.829956 -69.102470 17.574043 10.117508 36.028801 -4.298467 -3.175826 -0.998984 -4.180557 -0.517243 -18.594181 -21.307415 -50.764145 10.186246 5.077537 0.884542 6.448905 -8.159562 11.334042 
-5.732563 48.598904 13.345347 -22.089842 30.039063 -130.961914 46.395836 -22.574230 -7.454091 21.289063 -3.027344 -0.605984 51.063168 8.107644 2.471410 -129.394531 17.304688 -1.298829 2.000000 -2.000000 0.000000 21.279299 -56.542973 -54.666351 -105.749596 0.316379 -3.017174 2.987245 52.314148 -29.365042 -2.000000 2.000000 0.000000 -55.722656 14.238280 -143.749985 77.576141 -0.112814 -2.311123 76.202034 -56.481880 -80.760010 -65.964905 19.227621 11.445080 35.146698 -4.352650 -3.138977 1.175017 -4.245383 -1.103126 -18.232586 -22.168224 -48.974380 11.764435 5.066464 0.984451 6.944492 -7.831882 10.345091 
-5.254394 48.732838 13.592405 -21.250000 27.148438 -132.890640 45.839069 -22.064005 -7.018447 20.917973 -2.812500 0.028818 51.063168 8.107644 2.471410 -127.705070 16.113281 2.209742 2.000000 -2.000000 0.000000 17.148438 -57.138672 -56.336327 -106.452713 0.335878 -3.018306 -4.250302 52.873730 -33.314087 -2.000000 2.000000 0.000000 -54.736328 15.253906 -137.399780 79.510529 -0.189105 -2.344898 75.807159 -54.858173 -80.838440 -62.511448 20.786005 13.406537 34.624870 -4.284631 -3.007867 3.873464 -3.772018 -1.245649 -18.056805 -23.359137 -46.655544 13.724481 5.011257 1.336242 6.493163 -7.067744 9.850401 
-4.849326 48.874638 13.918383 -20.292971 24.072268 -134.941406 44.993645 -21.418467 -6.107839 20.566408 -2.490234 0.995670 51.063168 8.107644 2.471410 -125.849609 14.628906 6.386719 2.000000 -2.000000 0.000000 12.324219 -57.695313 -58.475052 -106.437958 0.511775 -2.852503 -12.652375 52.287601 -38.284004 -2.000000 2.000000 0.000000 -52.988281 16.835938 -129.619141 82.851410 -0.303826 -2.390687 75.490707 -53.897308 -81.199333 -58.538841 22.417336 15.712931 33.030697 -4.356856 -2.917684 5.262953 -3.660363 -1.805145 -18.418921 -24.917675 -43.095249 16.345366 4.944353 1.398320 6.668116 -6.260977 10.117858 
-4.368104 49.016441 14.288560 -19.462889 20.996094 -137.096100 44.366356 -20.622679 -5.426984 20.205080 -2.041016 1.894184 51.063168 8.107644 2.471410 -124.003899 12.773437 10.822472 2.000000 -2.000000 0.000000 9.453125 -57.714848 -64.353958 -106.261513 0.346922 -3.165558 -22.775070 51.155117 -45.498123 -2.000000 2.000000 0.000000 -50.166016 18.408203 -119.723473 87.920578 -0.710150 -2.805221 75.806824 -52.679485 -82.214417 -53.891243 23.608234 19.223406 31.624163 -4.435070 -3.027564 5.818449 -4.021712 -1.624301 -19.355995 -26.413322 -39.394012 19.324034 4.418383 1.701131 6.907568 -5.349568 11.142543 
